<mxfile host="app.diagrams.net" modified="2023-12-04T17:12:43.676Z" agent="Mozilla/5.0 (Windows NT 10.0; Win64; x64) AppleWebKit/537.36 (KHTML, like Gecko) Chrome/119.0.0.0 Safari/537.36" etag="EUZPFxeET8Z6NsKWSOmH" version="22.1.5" type="device">
  <diagram name="Page-1" id="2YBvvXClWsGukQMizWep">
    <mxGraphModel dx="1562" dy="924" grid="1" gridSize="10" guides="1" tooltips="1" connect="1" arrows="1" fold="1" page="1" pageScale="1" pageWidth="850" pageHeight="1100" math="0" shadow="0">
      <root>
        <mxCell id="0" />
        <mxCell id="1" parent="0" />
        <mxCell id="g_tPpGAOfdIyaXea1qWz-1" value="&lt;font color=&quot;#7ea6e0&quot;&gt;CLIENT X&lt;/font&gt;" style="shape=umlLifeline;perimeter=lifelinePerimeter;whiteSpace=wrap;html=1;container=0;dropTarget=0;collapsible=0;recursiveResize=0;outlineConnect=0;portConstraint=eastwest;newEdgeStyle={&quot;edgeStyle&quot;:&quot;elbowEdgeStyle&quot;,&quot;elbow&quot;:&quot;vertical&quot;,&quot;curved&quot;:0,&quot;rounded&quot;:0};" parent="1" vertex="1">
          <mxGeometry x="225" y="30" width="100" height="650" as="geometry" />
        </mxCell>
        <mxCell id="g_tPpGAOfdIyaXea1qWz-2" value="" style="html=1;points=[];perimeter=orthogonalPerimeter;outlineConnect=0;targetShapes=umlLifeline;portConstraint=eastwest;newEdgeStyle={&quot;edgeStyle&quot;:&quot;elbowEdgeStyle&quot;,&quot;elbow&quot;:&quot;vertical&quot;,&quot;curved&quot;:0,&quot;rounded&quot;:0};" parent="g_tPpGAOfdIyaXea1qWz-1" vertex="1">
          <mxGeometry x="45" y="80" width="10" height="540" as="geometry" />
        </mxCell>
        <mxCell id="g_tPpGAOfdIyaXea1qWz-3" value="&lt;font color=&quot;#ea6b66&quot;&gt;SERVER&lt;/font&gt;" style="shape=umlLifeline;perimeter=lifelinePerimeter;whiteSpace=wrap;html=1;container=0;dropTarget=0;collapsible=0;recursiveResize=0;outlineConnect=0;portConstraint=eastwest;newEdgeStyle={&quot;edgeStyle&quot;:&quot;elbowEdgeStyle&quot;,&quot;elbow&quot;:&quot;vertical&quot;,&quot;curved&quot;:0,&quot;rounded&quot;:0};" parent="1" vertex="1">
          <mxGeometry x="515" y="30" width="100" height="650" as="geometry" />
        </mxCell>
        <mxCell id="g_tPpGAOfdIyaXea1qWz-4" value="" style="html=1;points=[];perimeter=orthogonalPerimeter;outlineConnect=0;targetShapes=umlLifeline;portConstraint=eastwest;newEdgeStyle={&quot;edgeStyle&quot;:&quot;elbowEdgeStyle&quot;,&quot;elbow&quot;:&quot;vertical&quot;,&quot;curved&quot;:0,&quot;rounded&quot;:0};" parent="g_tPpGAOfdIyaXea1qWz-3" vertex="1">
          <mxGeometry x="45" y="60" width="10" height="560" as="geometry" />
        </mxCell>
        <mxCell id="g_tPpGAOfdIyaXea1qWz-5" value="Waiting for players..." style="html=1;dropTarget=0;whiteSpace=wrap;" parent="1" vertex="1">
          <mxGeometry x="500" y="130" width="130" height="30" as="geometry" />
        </mxCell>
        <mxCell id="g_tPpGAOfdIyaXea1qWz-20" value="&lt;font style=&quot;font-size: 19px;&quot;&gt;Game starts&lt;/font&gt;" style="rounded=1;whiteSpace=wrap;html=1;fillColor=#dae8fc;strokeColor=#6c8ebf;" parent="1" vertex="1">
          <mxGeometry x="256.88" y="570" width="320" height="40" as="geometry" />
        </mxCell>
        <mxCell id="g_tPpGAOfdIyaXea1qWz-21" value="&lt;font color=&quot;#ff6666&quot;&gt;Server sends TCP packet:&lt;/font&gt;" style="verticalAlign=bottom;html=1;endArrow=none;edgeStyle=none;labelBackgroundColor=none;fontSize=10;strokeWidth=2;rounded=0;fillColor=#f8cecc;strokeColor=#b85450;" parent="1" edge="1">
          <mxGeometry relative="1" as="geometry">
            <mxPoint x="640" y="319.65999999999997" as="sourcePoint" />
            <mxPoint x="800" y="319.65999999999997" as="targetPoint" />
          </mxGeometry>
        </mxCell>
        <mxCell id="g_tPpGAOfdIyaXea1qWz-22" value="&amp;lt;NumeroGiocatori&amp;gt;giocatori.size()&amp;lt;/NumeroGiocatori&amp;gt;" style="resizable=0;html=1;align=left;verticalAlign=top;labelBackgroundColor=none;fontSize=10;" parent="g_tPpGAOfdIyaXea1qWz-21" connectable="0" vertex="1">
          <mxGeometry x="-1" relative="1" as="geometry">
            <mxPoint x="-40" as="offset" />
          </mxGeometry>
        </mxCell>
        <mxCell id="g_tPpGAOfdIyaXea1qWz-24" value="" style="endArrow=none;dashed=1;html=1;dashPattern=1 3;strokeWidth=2;rounded=0;fillColor=#f8cecc;strokeColor=#b85450;" parent="1" edge="1">
          <mxGeometry width="50" height="50" relative="1" as="geometry">
            <mxPoint x="570" y="320" as="sourcePoint" />
            <mxPoint x="690" y="320" as="targetPoint" />
          </mxGeometry>
        </mxCell>
        <mxCell id="g_tPpGAOfdIyaXea1qWz-29" value="Wanna play" style="endArrow=classic;html=1;rounded=0;fillColor=#dae8fc;strokeColor=#6c8ebf;" parent="1" target="g_tPpGAOfdIyaXea1qWz-4" edge="1">
          <mxGeometry width="50" height="50" relative="1" as="geometry">
            <mxPoint x="280" y="190" as="sourcePoint" />
            <mxPoint x="439.5" y="190" as="targetPoint" />
          </mxGeometry>
        </mxCell>
        <mxCell id="g_tPpGAOfdIyaXea1qWz-60" value="When the number of connected clients equals 2 or 4, &lt;br&gt;every single user can ask to start the game" style="html=1;dropTarget=0;whiteSpace=wrap;" parent="1" vertex="1">
          <mxGeometry x="256.5" y="400" width="330" height="40" as="geometry" />
        </mxCell>
        <mxCell id="g_tPpGAOfdIyaXea1qWz-93" value="&lt;font&gt;Client sends TCP packet&lt;/font&gt;" style="verticalAlign=bottom;html=1;endArrow=none;edgeStyle=none;labelBackgroundColor=none;fontSize=10;strokeWidth=2;rounded=0;fillColor=#dae8fc;strokeColor=#6c8ebf;fontColor=#7EA6E0;" parent="1" edge="1">
          <mxGeometry relative="1" as="geometry">
            <mxPoint x="47.5" y="190" as="sourcePoint" />
            <mxPoint x="207.5" y="190" as="targetPoint" />
          </mxGeometry>
        </mxCell>
        <mxCell id="g_tPpGAOfdIyaXea1qWz-94" value="&amp;lt;Connect&amp;gt;[username]&amp;lt;Connect&amp;gt;" style="resizable=0;html=1;align=left;verticalAlign=top;labelBackgroundColor=none;fontSize=10;" parent="g_tPpGAOfdIyaXea1qWz-93" connectable="0" vertex="1">
          <mxGeometry x="-1" relative="1" as="geometry">
            <mxPoint x="5" as="offset" />
          </mxGeometry>
        </mxCell>
        <mxCell id="g_tPpGAOfdIyaXea1qWz-96" value="" style="endArrow=none;dashed=1;html=1;dashPattern=1 3;strokeWidth=2;rounded=0;fillColor=#dae8fc;strokeColor=#6c8ebf;" parent="1" target="g_tPpGAOfdIyaXea1qWz-2" edge="1">
          <mxGeometry width="50" height="50" relative="1" as="geometry">
            <mxPoint x="195" y="190" as="sourcePoint" />
            <mxPoint x="255" y="190" as="targetPoint" />
          </mxGeometry>
        </mxCell>
        <mxCell id="g_tPpGAOfdIyaXea1qWz-101" value="..." style="text;html=1;align=center;verticalAlign=middle;resizable=0;points=[];autosize=1;strokeColor=none;fillColor=none;fontSize=26;" parent="1" vertex="1">
          <mxGeometry x="391.88" y="610" width="50" height="40" as="geometry" />
        </mxCell>
        <mxCell id="wCH_qxUYtUUm3uJvWn0f-3" value="Adds player to queue" style="html=1;dropTarget=0;whiteSpace=wrap;" parent="1" vertex="1">
          <mxGeometry x="500" y="225" width="130" height="30" as="geometry" />
        </mxCell>
        <mxCell id="wCH_qxUYtUUm3uJvWn0f-8" value="" style="endArrow=none;html=1;rounded=0;fillColor=#f8cecc;strokeColor=#b85450;" parent="1" edge="1">
          <mxGeometry width="50" height="50" relative="1" as="geometry">
            <mxPoint x="280" y="320" as="sourcePoint" />
            <mxPoint x="560" y="320" as="targetPoint" />
          </mxGeometry>
        </mxCell>
        <mxCell id="wCH_qxUYtUUm3uJvWn0f-9" value="Notifies to all connected clients&lt;br style=&quot;border-color: var(--border-color);&quot;&gt;the new number of players" style="edgeLabel;html=1;align=center;verticalAlign=middle;resizable=0;points=[];" parent="wCH_qxUYtUUm3uJvWn0f-8" vertex="1" connectable="0">
          <mxGeometry x="-0.031" y="2" relative="1" as="geometry">
            <mxPoint as="offset" />
          </mxGeometry>
        </mxCell>
        <mxCell id="wCH_qxUYtUUm3uJvWn0f-10" value="" style="endArrow=none;dashed=1;html=1;dashPattern=1 3;strokeWidth=2;rounded=0;" parent="1" edge="1">
          <mxGeometry width="50" height="50" relative="1" as="geometry">
            <mxPoint x="202.5" y="319.5799999999999" as="sourcePoint" />
            <mxPoint x="270" y="320" as="targetPoint" />
          </mxGeometry>
        </mxCell>
        <mxCell id="wCH_qxUYtUUm3uJvWn0f-11" value="&lt;font style=&quot;font-size: 11px;&quot;&gt;Clients will refresh&lt;br&gt;connected players&lt;br&gt;counter on GUI&lt;/font&gt;" style="shape=note;whiteSpace=wrap;html=1;backgroundOutline=1;darkOpacity=0.05;fillColor=#d5e8d4;strokeColor=#82b366;" parent="1" vertex="1">
          <mxGeometry x="57.5" y="290" width="140" height="60" as="geometry" />
        </mxCell>
        <mxCell id="wCH_qxUYtUUm3uJvWn0f-12" value="" style="html=1;verticalLabelPosition=bottom;labelBackgroundColor=#ffffff;verticalAlign=top;shadow=0;dashed=0;strokeWidth=2;shape=mxgraph.ios7.misc.loading_circle;" parent="1" vertex="1">
          <mxGeometry x="470" y="135" width="20" height="20" as="geometry" />
        </mxCell>
        <mxCell id="wCH_qxUYtUUm3uJvWn0f-15" value="Want to start the game" style="endArrow=classic;html=1;rounded=0;fillColor=#dae8fc;strokeColor=#6c8ebf;" parent="1" edge="1">
          <mxGeometry width="50" height="50" relative="1" as="geometry">
            <mxPoint x="281.5" y="480" as="sourcePoint" />
            <mxPoint x="561.5" y="480" as="targetPoint" />
          </mxGeometry>
        </mxCell>
        <mxCell id="wCH_qxUYtUUm3uJvWn0f-23" value="&lt;font&gt;Client sends TCP packet&lt;/font&gt;" style="verticalAlign=bottom;html=1;endArrow=none;edgeStyle=none;labelBackgroundColor=none;fontSize=10;strokeWidth=2;rounded=0;fillColor=#dae8fc;strokeColor=#6c8ebf;fontColor=#7EA6E0;" parent="1" edge="1">
          <mxGeometry relative="1" as="geometry">
            <mxPoint x="49" y="480" as="sourcePoint" />
            <mxPoint x="209" y="480" as="targetPoint" />
          </mxGeometry>
        </mxCell>
        <mxCell id="wCH_qxUYtUUm3uJvWn0f-24" value="&amp;lt;Start&amp;gt;&amp;lt;/Start&amp;gt;" style="resizable=0;html=1;align=left;verticalAlign=top;labelBackgroundColor=none;fontSize=10;" parent="wCH_qxUYtUUm3uJvWn0f-23" connectable="0" vertex="1">
          <mxGeometry x="-1" relative="1" as="geometry">
            <mxPoint x="45" as="offset" />
          </mxGeometry>
        </mxCell>
        <mxCell id="wCH_qxUYtUUm3uJvWn0f-25" value="" style="endArrow=none;dashed=1;html=1;dashPattern=1 3;strokeWidth=2;rounded=0;fillColor=#dae8fc;strokeColor=#6c8ebf;" parent="1" edge="1">
          <mxGeometry width="50" height="50" relative="1" as="geometry">
            <mxPoint x="196.5" y="480" as="sourcePoint" />
            <mxPoint x="271.5" y="480" as="targetPoint" />
          </mxGeometry>
        </mxCell>
        <mxCell id="wCH_qxUYtUUm3uJvWn0f-26" value="" style="endArrow=none;html=1;rounded=0;fillColor=#f8cecc;strokeColor=#b85450;" parent="1" edge="1">
          <mxGeometry width="50" height="50" relative="1" as="geometry">
            <mxPoint x="281.5" y="530" as="sourcePoint" />
            <mxPoint x="561.5" y="530" as="targetPoint" />
          </mxGeometry>
        </mxCell>
        <mxCell id="wCH_qxUYtUUm3uJvWn0f-27" value="Notifies to all connected clients&lt;br style=&quot;border-color: var(--border-color);&quot;&gt;the game has started" style="edgeLabel;html=1;align=center;verticalAlign=middle;resizable=0;points=[];" parent="wCH_qxUYtUUm3uJvWn0f-26" vertex="1" connectable="0">
          <mxGeometry x="-0.031" y="2" relative="1" as="geometry">
            <mxPoint as="offset" />
          </mxGeometry>
        </mxCell>
        <mxCell id="wCH_qxUYtUUm3uJvWn0f-28" value="&lt;font color=&quot;#ff6666&quot;&gt;Server sends TCP packet:&lt;/font&gt;" style="verticalAlign=bottom;html=1;endArrow=none;edgeStyle=none;labelBackgroundColor=none;fontSize=10;strokeWidth=2;rounded=0;fillColor=#f8cecc;strokeColor=#b85450;" parent="1" edge="1">
          <mxGeometry relative="1" as="geometry">
            <mxPoint x="641.5" y="530" as="sourcePoint" />
            <mxPoint x="801.5" y="530" as="targetPoint" />
          </mxGeometry>
        </mxCell>
        <mxCell id="wCH_qxUYtUUm3uJvWn0f-29" value="&amp;lt;Start&amp;gt;&amp;lt;/Start&amp;gt;" style="resizable=0;html=1;align=left;verticalAlign=top;labelBackgroundColor=none;fontSize=10;" parent="wCH_qxUYtUUm3uJvWn0f-28" connectable="0" vertex="1">
          <mxGeometry x="-1" relative="1" as="geometry">
            <mxPoint x="40" as="offset" />
          </mxGeometry>
        </mxCell>
        <mxCell id="wCH_qxUYtUUm3uJvWn0f-30" value="" style="endArrow=none;dashed=1;html=1;dashPattern=1 3;strokeWidth=2;rounded=0;fillColor=#f8cecc;strokeColor=#b85450;" parent="1" edge="1">
          <mxGeometry width="50" height="50" relative="1" as="geometry">
            <mxPoint x="571.5" y="530" as="sourcePoint" />
            <mxPoint x="691.5" y="530" as="targetPoint" />
          </mxGeometry>
        </mxCell>
        <mxCell id="wCH_qxUYtUUm3uJvWn0f-37" value="" style="endArrow=none;dashed=1;html=1;dashPattern=1 3;strokeWidth=2;rounded=0;fillColor=#e1d5e7;strokeColor=#9673a6;" parent="1" source="wCH_qxUYtUUm3uJvWn0f-36" target="g_tPpGAOfdIyaXea1qWz-1" edge="1">
          <mxGeometry width="50" height="50" relative="1" as="geometry">
            <mxPoint y="120" as="sourcePoint" />
            <mxPoint x="95" y="119.66" as="targetPoint" />
          </mxGeometry>
        </mxCell>
        <mxCell id="wCH_qxUYtUUm3uJvWn0f-38" value="" style="endArrow=none;dashed=1;html=1;dashPattern=1 3;strokeWidth=2;rounded=0;fillColor=#e1d5e7;strokeColor=#9673a6;" parent="1" target="wCH_qxUYtUUm3uJvWn0f-36" edge="1">
          <mxGeometry width="50" height="50" relative="1" as="geometry">
            <mxPoint x="10" y="120" as="sourcePoint" />
            <mxPoint x="275" y="120" as="targetPoint" />
          </mxGeometry>
        </mxCell>
        <mxCell id="wCH_qxUYtUUm3uJvWn0f-36" value="Home window" style="shape=process;whiteSpace=wrap;html=1;backgroundOutline=1;fillColor=#e1d5e7;strokeColor=#9673a6;" parent="1" vertex="1">
          <mxGeometry x="67.5" y="110" width="120" height="20" as="geometry" />
        </mxCell>
        <mxCell id="wCH_qxUYtUUm3uJvWn0f-40" value="" style="endArrow=none;dashed=1;html=1;dashPattern=1 3;strokeWidth=2;rounded=0;fillColor=#e1d5e7;strokeColor=#9673a6;" parent="1" source="wCH_qxUYtUUm3uJvWn0f-42" edge="1">
          <mxGeometry width="50" height="50" relative="1" as="geometry">
            <mxPoint y="240" as="sourcePoint" />
            <mxPoint x="275" y="240" as="targetPoint" />
          </mxGeometry>
        </mxCell>
        <mxCell id="wCH_qxUYtUUm3uJvWn0f-41" value="" style="endArrow=none;dashed=1;html=1;dashPattern=1 3;strokeWidth=2;rounded=0;fillColor=#e1d5e7;strokeColor=#9673a6;" parent="1" target="wCH_qxUYtUUm3uJvWn0f-42" edge="1">
          <mxGeometry width="50" height="50" relative="1" as="geometry">
            <mxPoint x="10" y="240" as="sourcePoint" />
            <mxPoint x="275" y="240" as="targetPoint" />
          </mxGeometry>
        </mxCell>
        <mxCell id="wCH_qxUYtUUm3uJvWn0f-42" value="Waiting window" style="shape=process;whiteSpace=wrap;html=1;backgroundOutline=1;fillColor=#e1d5e7;strokeColor=#9673a6;" parent="1" vertex="1">
          <mxGeometry x="67.5" y="230" width="120" height="20" as="geometry" />
        </mxCell>
        <mxCell id="wCH_qxUYtUUm3uJvWn0f-49" value="" style="endArrow=none;dashed=1;html=1;dashPattern=1 3;strokeWidth=2;rounded=0;fillColor=#e1d5e7;strokeColor=#9673a6;" parent="1" source="wCH_qxUYtUUm3uJvWn0f-51" edge="1">
          <mxGeometry width="50" height="50" relative="1" as="geometry">
            <mxPoint y="530" as="sourcePoint" />
            <mxPoint x="275" y="530" as="targetPoint" />
          </mxGeometry>
        </mxCell>
        <mxCell id="wCH_qxUYtUUm3uJvWn0f-50" value="" style="endArrow=none;dashed=1;html=1;dashPattern=1 3;strokeWidth=2;rounded=0;fillColor=#e1d5e7;strokeColor=#9673a6;" parent="1" target="wCH_qxUYtUUm3uJvWn0f-51" edge="1">
          <mxGeometry width="50" height="50" relative="1" as="geometry">
            <mxPoint x="10" y="530" as="sourcePoint" />
            <mxPoint x="275" y="530" as="targetPoint" />
          </mxGeometry>
        </mxCell>
        <mxCell id="wCH_qxUYtUUm3uJvWn0f-51" value="Main window" style="shape=process;whiteSpace=wrap;html=1;backgroundOutline=1;fillColor=#e1d5e7;strokeColor=#9673a6;" parent="1" vertex="1">
          <mxGeometry x="67.5" y="520" width="120" height="20" as="geometry" />
        </mxCell>
        <mxCell id="wCH_qxUYtUUm3uJvWn0f-52" value="Other players join..." style="text;html=1;align=center;verticalAlign=middle;resizable=0;points=[];autosize=1;strokeColor=none;fillColor=none;" parent="1" vertex="1">
          <mxGeometry x="355" y="350" width="130" height="30" as="geometry" />
        </mxCell>
      </root>
    </mxGraphModel>
  </diagram>
</mxfile>
